/* XPM */
static char *_d765a44314d41d3d6b2d276506c5817TiO5XE2oaugWPO92[] = {
/* columns rows colors chars-per-pixel */
"64 64 194 2 ",
"   c None",
".  c #15092D",
"X  c #16103C",
"o  c #150F3B",
"O  c #161342",
"+  c #161648",
"@  c #171F5C",
"#  c #16205E",
"$  c #371A77",
"%  c #321E7A",
"&  c #172262",
"*  c #1A2368",
"=  c #1C2C7B",
"-  c #1B2A76",
";  c #2D227B",
":  c #232A7D",
">  c #31207C",
",  c #361F80",
"<  c #1D2E80",
"1  c #1F3087",
"2  c #1F3189",
"3  c #2D2A8B",
"4  c #2C2A8A",
"5  c #312383",
"6  c #20328C",
"7  c #223494",
"8  c #293093",
"9  c #24379C",
"0  c #25389E",
"q  c #2C2C90",
"w  c #263AA5",
"e  c #273CA9",
"r  c #293DAC",
"t  c #2B38A4",
"y  c #3134A3",
"u  c #2A3FB2",
"i  c #2B40B5",
"p  c #2D43BD",
"a  c #2863B4",
"s  c #2E45C2",
"d  c #2F48CA",
"f  c #314ACE",
"g  c #2B56C4",
"h  c #314CD4",
"j  c #334EDB",
"k  c #3450DF",
"l  c #3051D5",
"z  c #3D7FDC",
"x  c #2B73D3",
"c  c #3450E0",
"v  c #3159E1",
"b  c #2C67E0",
"n  c #2A6FE0",
"m  c #3260E3",
"M  c #2777E0",
"N  c #2973E1",
"B  c #257DE0",
"V  c #2F7AEA",
"C  c #2E7CE2",
"Z  c #3071E5",
"A  c #5952DA",
"S  c #6355D8",
"D  c #5771D9",
"F  c #4D73DA",
"G  c #747BDC",
"H  c #9553CF",
"J  c #8D56D0",
"K  c #9653D0",
"L  c #9C5ED2",
"P  c #8864D4",
"I  c #9D60D3",
"U  c #A369D6",
"Y  c #AE7CDA",
"T  c #B07EDC",
"R  c #2C86DE",
"E  c #2F85D6",
"W  c #1FB4CD",
"Q  c #21BAD6",
"!  c #21A6D3",
"~  c #1F8EE0",
"^  c #1F93E3",
"/  c #2286E0",
"(  c #208CE0",
")  c #2E81EC",
"_  c #2C88E5",
"`  c #2A93E3",
"'  c #209DE6",
"]  c #209FE8",
"[  c #2793E7",
"{  c #3C9CE4",
"}  c #3697E4",
"|  c #2B94F0",
" . c #3D85E6",
".. c #1FA7E4",
"X. c #1FB6E5",
"o. c #28A5E6",
"O. c #28A8E4",
"+. c #21A1E9",
"@. c #21A9EC",
"#. c #29ABE7",
"$. c #23B2EE",
"%. c #23BAE7",
"&. c #2AA3F3",
"*. c #28B3F7",
"=. c #23BBF3",
"-. c #24B3F4",
";. c #39BCF7",
":. c #3AB3ED",
">. c #448ADF",
",. c #6D8DD9",
"<. c #6894D9",
"1. c #53B2DD",
"2. c #5099E6",
"3. c #6986E2",
"4. c #49A3E6",
"5. c #4EA4EE",
"6. c #42A0E5",
"7. c #55A9E7",
"8. c #57AAE8",
"9. c #5EAEE9",
"0. c #50A6E7",
"q. c #5BB4EC",
"w. c #40B3F3",
"e. c #59BCF4",
"r. c #64B1EA",
"t. c #6AB4EA",
"y. c #73B8EC",
"u. c #62A5E6",
"i. c #1EC7E5",
"p. c #1DD5E6",
"a. c #23CCE8",
"s. c #22D3E7",
"d. c #22DEE9",
"f. c #37D4E7",
"g. c #22CCF3",
"h. c #26C3FA",
"j. c #25CAFB",
"k. c #32C3F9",
"l. c #24D3FF",
"z. c #22DCFA",
"x. c #27D7F5",
"c. c #33D6FE",
"v. c #3FD9FE",
"b. c #3BD7FE",
"n. c #1DE5E7",
"m. c #1EF4EE",
"M. c #1CFEE9",
"N. c #1FEEF1",
"B. c #1FF0F0",
"V. c #24E5E8",
"C. c #21E5F6",
"Z. c #20EAF3",
"A. c #22E1F8",
"S. c #25F1E7",
"D. c #40D9FF",
"F. c #4DDBFF",
"G. c #5BDEFF",
"H. c #57DBFD",
"J. c #4EC9F9",
"K. c #62DFFF",
"L. c #6BE1FE",
"P. c #76E4FF",
"I. c #B98EDF",
"U. c #9996E4",
"Y. c #80BFEC",
"T. c #D0B3EA",
"R. c #CBACE7",
"E. c #8EC6EF",
"W. c #83C2EE",
"Q. c #8FC7F0",
"!. c #98CBF0",
"~. c #8BDAF8",
"^. c #96D2F3",
"/. c #ABD5F3",
"(. c #ABDBF7",
"). c #85E7FE",
"_. c #92E9FE",
"`. c #9FEBFE",
"'. c #ADEFFF",
"]. c #B5F0FE",
"[. c #DBC6EE",
"{. c #C7E3F7",
"}. c #CBE4F6",
"|. c #C7E7F9",
" X c #D5EAF9",
".X c #DBEDF9",
"XX c #D4E9F7",
"oX c #C9F4FF",
"OX c #C7F4FE",
"+X c #DAF8FF",
"@X c #E3F1FA",
"#X c #E4F9FE",
"$X c #FFFFFF",
"%X c #F2E9F8",
/* pixels */
"                                                                                                                                ",
"                                    ].D.D.D.D.D.D.D.D.D.v.v.D.D.D.                                                              ",
"                                '.b.c.l.l.l.l.l.l.l.l.l.l.l.l.l.l.D.D.#X                                                        ",
"                                _.l.l.l.l.l.l.l.l.l.l.l.b.OXoXoXoXl.l.H.G.q.8. X                                                ",
"                                +X'.'.'.'.'.'.'.~.@.@.l.c.P.P.    l.l.l.l.=.=.q.y..X                                            ",
"                                            .Xy.9.^ ^ @.@.....P.P.l.l.l.l.l.l.+.~ 9.y.{.                                        ",
"                                    XXE.Q.Q.y.~ ~ ~ ~ ~ ~ ~ ~ $.$.l.l.Z.A.N.Z.+.^ ^ ~ r.E.XX                                    ",
"                                 X/.!.y.y.y.9.( ~ ~ ~ ~ ~ ~ ~ ~ ~ &.| n.N.M.M.a...^ ~ ^ R y./././. X                            ",
"                             X/.Q.y.Q./././.W.( ~ ~ ~ ~ ~ ~ ~ M M c c | &.m.M.N.A.=...^ ~ ~ ~ ~ ~ Q.                            ",
"                            E.~ Q.$X/.~ ~ ~ ~ ~ ~ / B B B B B c c c c c c V.N.M.M.C.A.@.~ ~ ~ ~ ~ y.{..X                        ",
"                            Q.( y.@X!.~ ~ ~ ~ / M c c c c c c c c c c c c *.h.N.M.M.M.X.[ ^ ( ( ~ ~ ~ y.                        ",
"                          @XY.^ ~ ~ ~ ~ ~ / M c c c c c c c c c c c c c c k c &.h.N.M.Z.l.+.( ( ~ ~ ~ t.@X                      ",
"                        y.~ ~ ~ ~ ~ ~ ~ M c c c c c c c c c c c c c c c c c k c c s.M.C.l.) c n ~ ~ ~ ~ ~ y.                    ",
"                        y.~ ~ ~ ~ ~ M c c c c c c c c c c c c c c c k s p k k k c s.M.M.M.` k n ~ ~ ~ ~ ~ y.                    ",
"        G.D.oX          y.~ ~ ~ N v c c c c c c c c c c j s s s s s s p p s s s s $.l.B.M.z.h.@.~ ~ ~ ~ ^ y.                    ",
"        #X#X        W.{ ` ~ ~ ~ N c V h.h.h.&.c c c j s s p p p p p p p p p p p s g g Q M.A.l.| k N ~ ~ ( ` { t.                ",
"                    y.( ^ ~ @.=.=.*.g.m.m.m.a.c j s s p p p p w w w w w w w w w w w i W M.#.Z m k n ~ ~ ~ ~ ~ 8.  +XG.L.        ",
"                !.y.{ ( ~ ~ $.l.A.N.m.M.s.` _ c j p p p p e w w 7 w 7 w 9 9 9 9 9 9 7 W M.` c c v v b M ~ ~ ~ 8.  OXl.v.        ",
"                8.~ ~ ~ +.$.g.N.B.M.d.o._ c j h d p p r e 9 9 9 w 9 9 9 9 9 0 0 9 9 0 ! A.R f h c c k v N M ~ 8.  oXl.c.).'.    ",
"            /.Q.{ ~ ~ ~ =.l.Z.M.s.#.) v j j h 9 0 0 9 0 0 9 0 9 9 9 0 9 0 3 3 3 4 4 4 a E g p f c c c c c b ~ 8.  #X_.).l.D.    ",
"            8.( ~ ~ ^ @.j.n.B.M.O.c k k h p r < 2 7 9 9 0 7 7 7 7 7 7 7 7 3 5 5 5 > $ 8 0 u p f c c c v b M ( 8.      #Xl.v.    ",
"            8.~ ~ ~ =.z.N.M.M.m.o.c c k p < < 7 7 i i 9 9 < = < = = - = < 7 7 9 9 ; $ 3 8 r p h c c c b ~ ~ ~ 4.{.|.oX].l.D.    ",
"            8.~ ~ ~ =.l.N.M.x.*.V c j d r = 2 i r 0 0 7 7 = = = - & & - = = : 9 9 3 > > > y p f c c c b B / ~ ~ ~ ] l.l.l.D.    ",
"        @X@X0.~ ~ ~ =.z.N.m.o.c k k p 2 2 1 7 9 9 w 7 < < = = & & & & & & = < 7 9 9 9 6 = w p f k c c c c b ~ ~ ~ ] l.l.l.b.    ",
"        { ( ^ ~ ~ ~ p.M.C.l.| c d p s p p p u 9 9 w 7 < = & & & & & & & & = < 7 0 9 9 2 < e p f c c c c c b ~ ~ ~ ] l.l.l.k.H H ",
"            8.~ h.l.B.M.` c c c c c h p u w 9 9 7 < < < = & & & & & & & & = < < < 7 0 2 < e p h c c c c c b ~ ~ ~ ] l.k.H H H H ",
"            7.R n.M.M.M.` c c c f p p p y $ $ $ $ $ $ $ $ & & & & & & & & & & = < < < w p p p p s h c c c b ^ ^ ~ ..l.k.K U     ",
"            H.g.m.M.M.M.` c c c h s y % $ $ 5 7 8 : = * & & & & & & & & & & & = < < < e p p p p p d c c c b ^ ^ j.j.l.k.K U     ",
"            U.G f.M.#.B m k c c d p y $ $ $ % 1 < < = & & & & & & o o # & & & = < < < 2 6 r p p p f j c c b ^ @.l.l.l.k.K U     ",
"        I.T I J ;.n.) c c k h s s p y $ 5 8 8 < < < = & & & & X o . . # & & & - < 7 7 2 < 6 6 w p h c c c b ~ ^ l.l.l.k.K U     ",
"        U H u.1.#...V c c c d p p p u y y 9 7 < < < = & # O O . . . . o O # & = < 7 0 7 7 1 < w p f c c c b ^ ^ l.;.3.G K U     ",
"    T.R.L H f.M.@.R b c c c h p p p u w 9 9 7 < < < = * # . . . . . . O + # & = < 7 9 9 9 6 = 0 p h c c c b ~ ..l.:.H L R.T.    ",
"    U K 3.3.x.N...~ b c c c f p p p i < 2 0 7 = 1 = = & # + + . . . . @ & & & = < 7 w 9 9 9 9 i f j c c c b ( +.l.w.H U         ",
"    U K j.l.=.=.^ ~ b c c c f p p p 0 < 2 0 7 1 = 1 = & & & & O O O O # & & & - < 7 9 9 9 u p f c c c c c n @.$.l.w.H U         ",
"    U K 5.w.` ~ ~ ~ b c c c h d p p 0 = 2 i 7 = 1 = = & & & & & & & & & & & & = < 2 7 7 w u s h c c c c c ) l.l.l.w.H U         ",
"    U K K K z ~ ~ ~ b c c c c c l p i = 1 2 7 1 6 = = & & & & & & & & & & & # = = - * 2 7 e r s c c c c c ) l.l.l.w.H U         ",
"    U K P P  .~ ~ ~ b c c c c c d p i 1 1 1 2 9 7 1 = * * & & & & & & & & & & = < < = 7 0 7 2 i c c c c c ) l.l.l.:.H U         ",
"    U K k.l.' ~ ~ ~ b c c c c c d p p i p p i = 1 0 0 = = & & & & & & & & & & - < < < e p p p f c c c j c ) l.l.l.w.H U         ",
"    U K         8.~ b c c c c c k k l p p p i = 1 = = 1 = & & & & & & & & = < < < > $ y p 7 < u c c c c c ) l.l.l.w.H U         ",
"    U K k.l.oX  8.^ b c c c c c k k h p p i i 1 = = 1 = = & & & & & & & & = < < < % $ y p p p f c c c c c ) l.w.H H H U         ",
"    U K k.l.:.} ` ~ b j c c c c c c k j h p r = < < < < < = = * & = = = = < < < < 7 8 6 2 e p f c c k V h.x.m.f.H Y %X          ",
"$X  e.w.l.l.^ R ~ ~ R B b c c c c c c k h p r < < : < < = 1 = = = < < < < ; % % % 7 9 9 7 r p f c k k _ m.m.M.d.z >.8.t.        ",
"$X$XD.l.l.l...^ ~ ~ ~ ~ b c c c c c c c h p u < : % % % ; = 6 = < < < < < % $ 3 8 9 w e u p p f c ` s.n.M.m.z.g.( 4.{.}.        ",
"$X$XD.l.l.l.~./.6.~ ~ ~ b c V ] V c c c h p i w 0 : ; $ % ; ; = < < < < < q q 7 9 9 9 u p d h j c O.M.n.X.X.@...( 8.            ",
"    `._.c.l.oX  8.( ^ ~ b c | l.=.O.O.O.R f d p u 9 0 3 3 3 3 < < < < < < 9 9 w 9 e u u s h c C O.s.M.p.~ ~ ~ ~ ( 8.            ",
"        b.l.oX  /.E.4.~ b c | j.A.Z.B.M.%.c k f f p p e e 9 9 = < < < 2 7 7 9 e u u s u r f c o.M.n.i.X.~ ~ ~ { Q./.            ",
"        v.l.oX      y.~ N b >.5.;.l.A.M.%.c k c j p p e w e e 6 2 2 2 9 9 7 7 u p p p u u x [ a.M.i.( ~ ~ ~ ~ 8.                ",
"        v.l.oX      y.^ ( ( D K 3.w.f.M.s.C N c h p u = 6 p p w e 9 w 9 9 < < e u p p h c $.N.n.s.X.~ ~ ~ ~ ~ 9.                ",
"        v.l.oX      y.~ ~ ~ D J J H <.M.M.M.s.k h s p 6 7 p p p p 9 w 7 9 < < 7 w u p f k | =.[ k M ~ ~ ~ ` { t.                ",
"        D.l.oX      y.~ ~ ~ N v S H ,.V.S.M.s.k k c k p s p p p p 9 7 2 < 2 2 u p s s s s j v M ~ ~ ~ ~ ~ y.                    ",
"        D.l.OX      y.~ ~ ~ ~ ~ D H H H <.M.s.k c c k k j p p p p < < < < u p p p h c c c B ~ ~ ~ ~ ~ ~ ~ y.                    ",
"                    y.~ ~ ~ ~ ~ M k A H <.M.S.l.*.k k k j p p p p < < u p c c c c c c c c M ~ ~ ~ ~ ~ y.                        ",
"                      @Xr.~ ~ ~ ( / F H H P ,.m.a.c c c c k j p p < < h j c c c c c c N R ~ ~ ~ ~ ~ ~ y.                        ",
"                          @Xy.~ ~ ~ R R D K ,.M.M.n.s.c k k c j j h h c c c c B / / / ~ ~ ~ ~ ~ ~ ~ ~ y.                        ",
"                        $X$X!.( ~ ~ ~ ~ R  .} z.Z.M.m.*.&.j c c c c c c c c c B ~ ~ ~ ~ ~ ~ ~ ~ ~ y.{..X                        ",
"                        $X$X X/.r.~ ~ ~ ~ ~ ..l.l.C.C.B.Z.&.&.c c c c N M M M / ~ ~ ~ ~ ~ ~ ~ r./.XX              +XP.).        ",
"                                Q.^ R ~ 7./.(.'.~.` $.A.C.N.N.C M M M ~ ~ ~ ~ ~ ~ ~ ~ ~ ~ ~ R Q.              +XP.L.l.D.        ",
"                                {.Q.q.~ 4.Q./.  @XY.P.$.=.Z.Z.@.$.$.-.^ ~ ~ ~ ~ ~ ~ ~ ~ ~ r.E.~._.oX          #X_._._.`.        ",
"                                    {.y.7.~ 6./././.Q.~ ' l.l.l.l.l.l...@.^ ~ ~ ~ 9.y.y.y.~.'.L.l.L.'.oX                        ",
"                                        {.y.9.~ ~ R ^ R ( 5.5.5.5.l.l.l.l.@.@...@.~.'.'.'.H.l.l.l.F.P.'.                        ",
"                                             X8.8.8.8.8.u.T T K K w.w.j.l.l.l.l.l.l.l.k.w.w.w.J.G.'.                            ",
"                                                              U U K K ;.k.k.k.k.k.k.k.G K I U T.                                ",
"                                                                  U U U U U U U U U U U U [.                                    ",
"                                                                                                                                "
};
